<svg xmlns="http://www.w3.org/2000/svg" viewBox="0 0 512 512">
  <rect width="512" height="512" rx="110" fill="url(#grad)"/>
  <defs>
    <linearGradient id="grad" x1="0%" y1="0%" x2="100%" y2="100%">
      <stop offset="0%" style="stop-color:#FF2D55"/>
      <stop offset="100%" style="stop-color:#FF6B8A"/>
    </linearGradient>
  </defs>
  <!-- Bell -->
  <path d="M256 120 C200 120 160 160 160 220 L160 310 L130 340 L130 360 L380 360 L380 340 L350 310 L350 220 C350 160 312 120 256 120Z" fill="white" opacity="0.9"/>
  <!-- Clapper -->
  <circle cx="256" cy="385" r="25" fill="white" opacity="0.9"/>
  <!-- Heart -->
  <path d="M256 290 C246 278 220 278 220 298 C220 310 256 330 256 330 C256 330 292 310 292 298 C292 278 266 278 256 290Z" fill="#FF2D55"/>
</svg>
